<?xml version="1.0" encoding="UTF-8" standalone="no"?>
<!DOCTYPE svg PUBLIC "-//W3C//DTD SVG 1.1//EN"
 "http://www.w3.org/Graphics/SVG/1.1/DTD/svg11.dtd">
<!-- Generated by graphviz version 5.0.0 (0)
 -->
<!-- Pages: 1 -->
<svg width="327pt" height="233pt"
 viewBox="0.00 0.00 326.70 232.91" xmlns="http://www.w3.org/2000/svg" xmlns:xlink="http://www.w3.org/1999/xlink">
<g id="graph0" class="graph" transform="scale(1 1) rotate(0) translate(4 228.91)">
<polygon fill="white" stroke="transparent" points="-4,4 -4,-228.91 322.7,-228.91 322.7,4 -4,4"/>
<g id="clust1" class="cluster">
<title>cluster1200</title>
<path fill="none" stroke="black" d="M104.72,-8C104.72,-8 180.72,-8 180.72,-8 186.72,-8 192.72,-14 192.72,-20 192.72,-20 192.72,-109.95 192.72,-109.95 192.72,-115.95 186.72,-121.95 180.72,-121.95 180.72,-121.95 104.72,-121.95 104.72,-121.95 98.72,-121.95 92.72,-115.95 92.72,-109.95 92.72,-109.95 92.72,-20 92.72,-20 92.72,-14 98.72,-8 104.72,-8"/>
<text text-anchor="middle" x="170.72" y="-15.8" font-family="Times New Roman,serif" font-size="14.00">1200</text>
</g>
<!-- x0 -->
<g id="node1" class="node">
<title>x0</title>
<ellipse fill="none" stroke="black" cx="41.72" cy="-187.43" rx="41.94" ry="37.45"/>
<text text-anchor="middle" x="41.72" y="-198.73" font-family="Times New Roman,serif" font-size="14.00">x0</text>
<text text-anchor="middle" x="41.72" y="-183.73" font-family="Times New Roman,serif" font-size="14.00">~</text>
<text text-anchor="middle" x="41.72" y="-168.73" font-family="Times New Roman,serif" font-size="14.00">Normal</text>
</g>
<!-- y_pred -->
<g id="node4" class="node">
<title>y_pred</title>
<ellipse fill="lightgrey" stroke="black" cx="142.72" cy="-76.48" rx="41.94" ry="37.45"/>
<text text-anchor="middle" x="142.72" y="-87.78" font-family="Times New Roman,serif" font-size="14.00">y_pred</text>
<text text-anchor="middle" x="142.72" y="-72.78" font-family="Times New Roman,serif" font-size="14.00">~</text>
<text text-anchor="middle" x="142.72" y="-57.78" font-family="Times New Roman,serif" font-size="14.00">Normal</text>
</g>
<!-- x0&#45;&gt;y_pred -->
<g id="edge1" class="edge">
<title>x0&#45;&gt;y_pred</title>
<path fill="none" stroke="black" d="M67.99,-158.09C80.63,-144.45 95.93,-127.95 109.38,-113.44"/>
<polygon fill="black" stroke="black" points="112,-115.77 116.23,-106.06 106.86,-111.01 112,-115.77"/>
</g>
<!-- A -->
<g id="node2" class="node">
<title>A</title>
<ellipse fill="none" stroke="black" cx="142.72" cy="-187.43" rx="41.94" ry="37.45"/>
<text text-anchor="middle" x="142.72" y="-198.73" font-family="Times New Roman,serif" font-size="14.00">A</text>
<text text-anchor="middle" x="142.72" y="-183.73" font-family="Times New Roman,serif" font-size="14.00">~</text>
<text text-anchor="middle" x="142.72" y="-168.73" font-family="Times New Roman,serif" font-size="14.00">Normal</text>
</g>
<!-- A&#45;&gt;y_pred -->
<g id="edge3" class="edge">
<title>A&#45;&gt;y_pred</title>
<path fill="none" stroke="black" d="M142.72,-149.85C142.72,-141.67 142.72,-132.89 142.72,-124.37"/>
<polygon fill="black" stroke="black" points="146.22,-124.15 142.72,-114.15 139.22,-124.15 146.22,-124.15"/>
</g>
<!-- σ -->
<g id="node3" class="node">
<title>σ</title>
<ellipse fill="none" stroke="black" cx="260.72" cy="-187.43" rx="57.97" ry="37.45"/>
<text text-anchor="middle" x="260.72" y="-198.73" font-family="Times New Roman,serif" font-size="14.00">σ</text>
<text text-anchor="middle" x="260.72" y="-183.73" font-family="Times New Roman,serif" font-size="14.00">~</text>
<text text-anchor="middle" x="260.72" y="-168.73" font-family="Times New Roman,serif" font-size="14.00">HalfCauchy</text>
</g>
<!-- σ&#45;&gt;y_pred -->
<g id="edge2" class="edge">
<title>σ&#45;&gt;y_pred</title>
<path fill="none" stroke="black" d="M228.16,-156.37C212.92,-142.3 194.71,-125.48 179.02,-111"/>
<polygon fill="black" stroke="black" points="181.27,-108.31 171.55,-104.1 176.52,-113.45 181.27,-108.31"/>
</g>
</g>
</svg>
